# xmcd
#
# Track frame offsets: 
#        150
#        12757
#        25960
#        37457
#        49265
#        68442
#        82215
#        93570
#        107940
#        125817
#
# Disc length: 1836 seconds
#
# Revision: 1
# Processed by: cddbd v1.5.2PL0 Copyright (c) Steve Scherf et al.
# Submitted via: ExactAudioCopy v1.0b3
#
DISCID=8e072a0a
DTITLE=Cash, Johnny and Waylon Jennings - Heroes
DYEAR=1993
DGENRE=Country
TTITLE0=Folks Out On The Road
TTITLE1=I'm Never Gonna Roam Again
TTITLE2=American By Birth
TTITLE3=Field Of Diamonds
TTITLE4=Heroes
TTITLE5=Even Cowgirls Get The Blues
TTITLE6=Love Is The Way
TTITLE7=The Ballad Of Forty Dollars
TTITLE8=I'll Always Love You (In My Own Crazy Way)
TTITLE9=One Too Many Mornings
EXTD=(p)1986 Sony Music Entertainment USA\n(c)1993 Sony Music Entertai
EXTD=nment UK Ltd\nupc 5018665330528
EXTT0=
EXTT1=
EXTT2=
EXTT3=
EXTT4=
EXTT5=
EXTT6=
EXTT7=
EXTT8=
EXTT9=
PLAYORDER=
